# xmcd
#
# Track frame offsets:
#  150
#  13890
#  28272
#  41917
#  55600
#  68662
#  82530
#  94897
#  107835
#  120562
#  135407
#  148980
#  162657
#  175142
#  189457
#  202102
#  215495
#  228512
#  242085
#  255922
#  267482
#  280047
#  292222
#  305320
#  317300
#
# Disc length: 4392 seconds
#
# Revision: 0
# Processed by: cddbd v1.5.2PL0 Copyright (c) Steve Scherf et al.
# Submitted via: AltoMP3_Maker 3.0
#
DISCID=6e112619
DTITLE=Bob Wills and His Texas Playboys - Legends of Country Music D1
DYEAR=2006
DGENRE=Country Classics
TTITLE0=Sunbonnet Sue
TTITLE1=Nancy Jane
TTITLE2=Osage Stomp
TTITLE3=Get With It
TTITLE4=Spanish Two Step
TTITLE5=Maiden's Prayer
TTITLE6=I Ain't Got Nobody
TTITLE7=Who Walks In When I Walk Out
TTITLE8=Oklahoma Rag
TTITLE9=Sitting On Top Of The World
TTITLE10=I Can't Be Satisfied
TTITLE11=Waltz In D
TTITLE12=She's Killing Me
TTITLE13=Bluin' The Blues
TTITLE14=Steel Guitar Rag
TTITLE15=Trouble In Mind
TTITLE16=What's The Matter With The Mill
TTITLE17=Basin Street Blues
TTITLE18=Red Hot Gal Of Mine
TTITLE19=Too Busy
TTITLE20=Crippled Turkey
TTITLE21=Bring It On Down To My House
TTITLE22=Right Or Wrong
TTITLE23=Swing Blues #1
TTITLE24=White Heat
EXTD=
EXTT0=
EXTT1=
EXTT2=
EXTT3=
EXTT4=
EXTT5=
EXTT6=
EXTT7=
EXTT8=
EXTT9=
EXTT10=
EXTT11=
EXTT12=
EXTT13=
EXTT14=
EXTT15=
EXTT16=
EXTT17=
EXTT18=
EXTT19=
EXTT20=
EXTT21=
EXTT22=
EXTT23=
EXTT24=
PLAYORDER=
